<?xml version="1.0" encoding="iso-8859-1"?>
<!-- Generator: Adobe Illustrator 19.0.0, SVG Export Plug-In . SVG Version: 6.00 Build 0)  -->
<svg version="1.1" id="Layer_1" xmlns="http://www.w3.org/2000/svg" xmlns:xlink="http://www.w3.org/1999/xlink" x="0px" y="0px"
	 viewBox="0 0 512 512" style="enable-background:new 0 0 512 512;" xml:space="preserve">
<g>
	<g>
		<g>
			<path d="M255.996,106.667c-35.285,0-64,28.715-64,64c0,22.443,11.669,42.859,31.232,54.613
				c7.232,4.352,11.2,12.544,10.155,20.928L216.166,384h79.659l-17.216-137.792c-1.045-8.384,2.923-16.576,10.155-20.928
				c19.563-11.755,31.232-32.171,31.232-54.613C319.996,135.381,291.281,106.667,255.996,106.667z"/>
			<path d="M256,0C114.837,0,0,114.837,0,256s114.837,256,256,256s256-114.837,256-256S397.163,0,256,0z M341.163,402.688
				c0.768,6.08-1.131,12.181-5.163,16.768c-4.075,4.587-9.877,7.211-16,7.211H192c-6.123,0-11.947-2.624-16-7.211
				s-5.952-10.688-5.163-16.768l18.624-148.992c-25.365-20.139-40.128-50.261-40.128-83.029C149.333,111.851,197.184,64,256,64
				s106.667,47.851,106.667,106.667c0,32.768-14.784,62.891-40.128,83.029L341.163,402.688z"/>
		</g>
	</g>
</g>
<g>
</g>
<g>
</g>
<g>
</g>
<g>
</g>
<g>
</g>
<g>
</g>
<g>
</g>
<g>
</g>
<g>
</g>
<g>
</g>
<g>
</g>
<g>
</g>
<g>
</g>
<g>
</g>
<g>
</g>
</svg>
