<?xml version="1.0" encoding="UTF-8" standalone="no"?>
<svg
   xmlns:dc="http://purl.org/dc/elements/1.1/"
   xmlns:cc="http://creativecommons.org/ns#"
   xmlns:rdf="http://www.w3.org/1999/02/22-rdf-syntax-ns#"
   xmlns:svg="http://www.w3.org/2000/svg"
   xmlns="http://www.w3.org/2000/svg"
   xmlns:sodipodi="http://sodipodi.sourceforge.net/DTD/sodipodi-0.dtd"
   xmlns:inkscape="http://www.inkscape.org/namespaces/inkscape"
   version="1.1"
   id="Layer_1"
   x="0px"
   y="0px"
   viewBox="0 0 512 512"
   style="enable-background:new 0 0 512 512;"
   xml:space="preserve"
   sodipodi:docname="keyhole-privacy.svg"
   inkscape:version="1.0 (9f2f71dc58, 2020-08-02)"><metadata
   id="metadata47"><rdf:RDF><cc:Work
       rdf:about=""><dc:format>image/svg+xml</dc:format><dc:type
         rdf:resource="http://purl.org/dc/dcmitype/StillImage" /></cc:Work></rdf:RDF></metadata><defs
   id="defs45">
	
</defs><sodipodi:namedview
   pagecolor="#ffffff"
   bordercolor="#666666"
   borderopacity="1"
   objecttolerance="10"
   gridtolerance="10"
   guidetolerance="10"
   inkscape:pageopacity="0"
   inkscape:pageshadow="2"
   inkscape:window-width="1920"
   inkscape:window-height="1016"
   id="namedview43"
   showgrid="false"
   inkscape:zoom="0.59627608"
   inkscape:cx="-568.11958"
   inkscape:cy="269.06121"
   inkscape:window-x="0"
   inkscape:window-y="27"
   inkscape:window-maximized="1"
   inkscape:current-layer="Layer_1" />
<g
   id="g8">
		<g
   id="g6">
			<path
   d="m 255.996,106.667 c -35.285,0 -64,28.715 -64,64 0,22.443 11.669,42.859 31.232,54.613 7.232,4.352 11.2,12.544 10.155,20.928 L 216.166,384 h 79.659 L 278.609,246.208 c -1.045,-8.384 2.923,-16.576 10.155,-20.928 19.563,-11.755 31.232,-32.171 31.232,-54.613 0,-35.286 -28.715,-64 -64,-64 z"
   id="path2"
   style="fill:#ffffff" />
			<path
   d="M 256,0 C 114.837,0 0,114.837 0,256 0,397.163 114.837,512 256,512 397.163,512 512,397.163 512,256 512,114.837 397.163,0 256,0 Z m 85.163,402.688 c 0.768,6.08 -1.131,12.181 -5.163,16.768 -4.075,4.587 -9.877,7.211 -16,7.211 H 192 c -6.123,0 -11.947,-2.624 -16,-7.211 -4.053,-4.587 -5.952,-10.688 -5.163,-16.768 L 189.461,253.696 C 164.096,233.557 149.333,203.435 149.333,170.667 149.333,111.851 197.184,64 256,64 c 58.816,0 106.667,47.851 106.667,106.667 0,32.768 -14.784,62.891 -40.128,83.029 z"
   id="path4"
   style="fill:#ffffff" />
		</g>
	</g>
<g
   id="g12">
</g>
<g
   id="g14">
</g>
<g
   id="g16">
</g>
<g
   id="g18">
</g>
<g
   id="g20">
</g>
<g
   id="g22">
</g>
<g
   id="g24">
</g>
<g
   id="g26">
</g>
<g
   id="g28">
</g>
<g
   id="g30">
</g>
<g
   id="g32">
</g>
<g
   id="g34">
</g>
<g
   id="g36">
</g>
<g
   id="g38">
</g>
<g
   id="g40">
</g>
</svg>
